<mxfile host="app.diagrams.net" modified="2023-04-10T17:25:12.095Z" agent="Mozilla/5.0 (Windows NT 10.0; Win64; x64) AppleWebKit/537.36 (KHTML, like Gecko) Chrome/111.0.0.0 Safari/537.36" etag="1wjfqHwn5ozRQor82SGX" version="21.1.5" type="device">
  <diagram name="Page-1" id="QRw7-1rBalTZ2qhcgs9M">
    <mxGraphModel dx="1877" dy="581" grid="1" gridSize="10" guides="1" tooltips="1" connect="1" arrows="1" fold="1" page="1" pageScale="1" pageWidth="827" pageHeight="1169" math="0" shadow="0">
      <root>
        <mxCell id="0" />
        <mxCell id="1" parent="0" />
        <mxCell id="H_qNy9bLWz0ZtJrYIu9e-1" value="user" style="swimlane;fontStyle=0;childLayout=stackLayout;horizontal=1;startSize=26;fillColor=none;horizontalStack=0;resizeParent=1;resizeParentMax=0;resizeLast=0;collapsible=1;marginBottom=0;whiteSpace=wrap;html=1;" vertex="1" parent="1">
          <mxGeometry x="460" y="50" width="140" height="130" as="geometry" />
        </mxCell>
        <mxCell id="H_qNy9bLWz0ZtJrYIu9e-2" value="name: String" style="text;strokeColor=none;fillColor=none;align=left;verticalAlign=top;spacingLeft=4;spacingRight=4;overflow=hidden;rotatable=0;points=[[0,0.5],[1,0.5]];portConstraint=eastwest;whiteSpace=wrap;html=1;" vertex="1" parent="H_qNy9bLWz0ZtJrYIu9e-1">
          <mxGeometry y="26" width="140" height="26" as="geometry" />
        </mxCell>
        <mxCell id="H_qNy9bLWz0ZtJrYIu9e-3" value="usernmame: String" style="text;strokeColor=none;fillColor=none;align=left;verticalAlign=top;spacingLeft=4;spacingRight=4;overflow=hidden;rotatable=0;points=[[0,0.5],[1,0.5]];portConstraint=eastwest;whiteSpace=wrap;html=1;" vertex="1" parent="H_qNy9bLWz0ZtJrYIu9e-1">
          <mxGeometry y="52" width="140" height="26" as="geometry" />
        </mxCell>
        <mxCell id="H_qNy9bLWz0ZtJrYIu9e-4" value="password: String" style="text;strokeColor=none;fillColor=none;align=left;verticalAlign=top;spacingLeft=4;spacingRight=4;overflow=hidden;rotatable=0;points=[[0,0.5],[1,0.5]];portConstraint=eastwest;whiteSpace=wrap;html=1;" vertex="1" parent="H_qNy9bLWz0ZtJrYIu9e-1">
          <mxGeometry y="78" width="140" height="26" as="geometry" />
        </mxCell>
        <mxCell id="H_qNy9bLWz0ZtJrYIu9e-25" value="email: String" style="text;strokeColor=none;fillColor=none;align=left;verticalAlign=top;spacingLeft=4;spacingRight=4;overflow=hidden;rotatable=0;points=[[0,0.5],[1,0.5]];portConstraint=eastwest;whiteSpace=wrap;html=1;" vertex="1" parent="H_qNy9bLWz0ZtJrYIu9e-1">
          <mxGeometry y="104" width="140" height="26" as="geometry" />
        </mxCell>
        <mxCell id="H_qNy9bLWz0ZtJrYIu9e-27" style="edgeStyle=orthogonalEdgeStyle;rounded=0;orthogonalLoop=1;jettySize=auto;html=1;exitX=0.5;exitY=0;exitDx=0;exitDy=0;entryX=0.511;entryY=1.069;entryDx=0;entryDy=0;entryPerimeter=0;" edge="1" parent="1" source="H_qNy9bLWz0ZtJrYIu9e-5" target="H_qNy9bLWz0ZtJrYIu9e-25">
          <mxGeometry relative="1" as="geometry" />
        </mxCell>
        <mxCell id="H_qNy9bLWz0ZtJrYIu9e-31" style="edgeStyle=orthogonalEdgeStyle;rounded=0;orthogonalLoop=1;jettySize=auto;html=1;exitX=0;exitY=0.5;exitDx=0;exitDy=0;entryX=1;entryY=0.5;entryDx=0;entryDy=0;endArrow=none;endFill=0;" edge="1" parent="1" source="H_qNy9bLWz0ZtJrYIu9e-5" target="H_qNy9bLWz0ZtJrYIu9e-18">
          <mxGeometry relative="1" as="geometry" />
        </mxCell>
        <mxCell id="H_qNy9bLWz0ZtJrYIu9e-5" value="client" style="swimlane;fontStyle=0;childLayout=stackLayout;horizontal=1;startSize=26;fillColor=none;horizontalStack=0;resizeParent=1;resizeParentMax=0;resizeLast=0;collapsible=1;marginBottom=0;whiteSpace=wrap;html=1;" vertex="1" parent="1">
          <mxGeometry x="460" y="210" width="140" height="52" as="geometry" />
        </mxCell>
        <mxCell id="H_qNy9bLWz0ZtJrYIu9e-28" style="edgeStyle=orthogonalEdgeStyle;rounded=0;orthogonalLoop=1;jettySize=auto;html=1;exitX=0.5;exitY=0;exitDx=0;exitDy=0;entryX=0.5;entryY=1;entryDx=0;entryDy=0;" edge="1" parent="1" source="H_qNy9bLWz0ZtJrYIu9e-9" target="H_qNy9bLWz0ZtJrYIu9e-5">
          <mxGeometry relative="1" as="geometry" />
        </mxCell>
        <mxCell id="H_qNy9bLWz0ZtJrYIu9e-30" style="edgeStyle=orthogonalEdgeStyle;rounded=0;orthogonalLoop=1;jettySize=auto;html=1;exitX=0;exitY=0.5;exitDx=0;exitDy=0;entryX=1;entryY=0.5;entryDx=0;entryDy=0;endArrow=none;endFill=0;" edge="1" parent="1" source="H_qNy9bLWz0ZtJrYIu9e-9" target="H_qNy9bLWz0ZtJrYIu9e-21">
          <mxGeometry relative="1" as="geometry" />
        </mxCell>
        <mxCell id="H_qNy9bLWz0ZtJrYIu9e-32" style="edgeStyle=orthogonalEdgeStyle;rounded=0;orthogonalLoop=1;jettySize=auto;html=1;exitX=0.25;exitY=0;exitDx=0;exitDy=0;entryX=1;entryY=0.5;entryDx=0;entryDy=0;endArrow=none;endFill=0;" edge="1" parent="1" source="H_qNy9bLWz0ZtJrYIu9e-9" target="H_qNy9bLWz0ZtJrYIu9e-19">
          <mxGeometry relative="1" as="geometry">
            <Array as="points">
              <mxPoint x="495" y="280" />
              <mxPoint x="290" y="280" />
            </Array>
          </mxGeometry>
        </mxCell>
        <mxCell id="H_qNy9bLWz0ZtJrYIu9e-9" value="agent" style="swimlane;fontStyle=0;childLayout=stackLayout;horizontal=1;startSize=26;fillColor=none;horizontalStack=0;resizeParent=1;resizeParentMax=0;resizeLast=0;collapsible=1;marginBottom=0;whiteSpace=wrap;html=1;" vertex="1" parent="1">
          <mxGeometry x="460" y="340" width="140" height="52" as="geometry" />
        </mxCell>
        <mxCell id="H_qNy9bLWz0ZtJrYIu9e-29" style="edgeStyle=orthogonalEdgeStyle;rounded=0;orthogonalLoop=1;jettySize=auto;html=1;exitX=0.5;exitY=0;exitDx=0;exitDy=0;entryX=0.5;entryY=1;entryDx=0;entryDy=0;" edge="1" parent="1" source="H_qNy9bLWz0ZtJrYIu9e-13" target="H_qNy9bLWz0ZtJrYIu9e-9">
          <mxGeometry relative="1" as="geometry" />
        </mxCell>
        <mxCell id="H_qNy9bLWz0ZtJrYIu9e-13" value="admin" style="swimlane;fontStyle=0;childLayout=stackLayout;horizontal=1;startSize=26;fillColor=none;horizontalStack=0;resizeParent=1;resizeParentMax=0;resizeLast=0;collapsible=1;marginBottom=0;whiteSpace=wrap;html=1;" vertex="1" parent="1">
          <mxGeometry x="460" y="481" width="140" height="52" as="geometry" />
        </mxCell>
        <mxCell id="H_qNy9bLWz0ZtJrYIu9e-43" style="edgeStyle=orthogonalEdgeStyle;rounded=0;orthogonalLoop=1;jettySize=auto;html=1;exitX=0.5;exitY=0;exitDx=0;exitDy=0;entryX=0.469;entryY=1.023;entryDx=0;entryDy=0;entryPerimeter=0;endArrow=none;endFill=0;" edge="1" parent="1" source="H_qNy9bLWz0ZtJrYIu9e-17" target="H_qNy9bLWz0ZtJrYIu9e-35">
          <mxGeometry relative="1" as="geometry">
            <Array as="points">
              <mxPoint x="216" y="197" />
            </Array>
          </mxGeometry>
        </mxCell>
        <mxCell id="H_qNy9bLWz0ZtJrYIu9e-17" value="ticket" style="swimlane;fontStyle=0;childLayout=stackLayout;horizontal=1;startSize=26;fillColor=none;horizontalStack=0;resizeParent=1;resizeParentMax=0;resizeLast=0;collapsible=1;marginBottom=0;whiteSpace=wrap;html=1;" vertex="1" parent="1">
          <mxGeometry x="150" y="197" width="140" height="104" as="geometry" />
        </mxCell>
        <mxCell id="H_qNy9bLWz0ZtJrYIu9e-18" value="title: String" style="text;strokeColor=none;fillColor=none;align=left;verticalAlign=top;spacingLeft=4;spacingRight=4;overflow=hidden;rotatable=0;points=[[0,0.5],[1,0.5]];portConstraint=eastwest;whiteSpace=wrap;html=1;" vertex="1" parent="H_qNy9bLWz0ZtJrYIu9e-17">
          <mxGeometry y="26" width="140" height="26" as="geometry" />
        </mxCell>
        <mxCell id="H_qNy9bLWz0ZtJrYIu9e-19" value="date: Date" style="text;strokeColor=none;fillColor=none;align=left;verticalAlign=top;spacingLeft=4;spacingRight=4;overflow=hidden;rotatable=0;points=[[0,0.5],[1,0.5]];portConstraint=eastwest;whiteSpace=wrap;html=1;" vertex="1" parent="H_qNy9bLWz0ZtJrYIu9e-17">
          <mxGeometry y="52" width="140" height="26" as="geometry" />
        </mxCell>
        <mxCell id="H_qNy9bLWz0ZtJrYIu9e-38" value="status: String" style="text;strokeColor=none;fillColor=none;align=left;verticalAlign=top;spacingLeft=4;spacingRight=4;overflow=hidden;rotatable=0;points=[[0,0.5],[1,0.5]];portConstraint=eastwest;whiteSpace=wrap;html=1;" vertex="1" parent="H_qNy9bLWz0ZtJrYIu9e-17">
          <mxGeometry y="78" width="140" height="26" as="geometry" />
        </mxCell>
        <mxCell id="H_qNy9bLWz0ZtJrYIu9e-33" style="edgeStyle=orthogonalEdgeStyle;rounded=0;orthogonalLoop=1;jettySize=auto;html=1;exitX=0.5;exitY=0;exitDx=0;exitDy=0;entryX=0.516;entryY=1.092;entryDx=0;entryDy=0;endArrow=none;endFill=0;entryPerimeter=0;" edge="1" parent="1" source="H_qNy9bLWz0ZtJrYIu9e-21" target="H_qNy9bLWz0ZtJrYIu9e-38">
          <mxGeometry relative="1" as="geometry" />
        </mxCell>
        <mxCell id="H_qNy9bLWz0ZtJrYIu9e-21" value="department" style="swimlane;fontStyle=0;childLayout=stackLayout;horizontal=1;startSize=26;fillColor=none;horizontalStack=0;resizeParent=1;resizeParentMax=0;resizeLast=0;collapsible=1;marginBottom=0;whiteSpace=wrap;html=1;" vertex="1" parent="1">
          <mxGeometry x="150" y="340" width="140" height="52" as="geometry" />
        </mxCell>
        <mxCell id="H_qNy9bLWz0ZtJrYIu9e-22" value="name: String" style="text;strokeColor=none;fillColor=none;align=left;verticalAlign=top;spacingLeft=4;spacingRight=4;overflow=hidden;rotatable=0;points=[[0,0.5],[1,0.5]];portConstraint=eastwest;whiteSpace=wrap;html=1;" vertex="1" parent="H_qNy9bLWz0ZtJrYIu9e-21">
          <mxGeometry y="26" width="140" height="26" as="geometry" />
        </mxCell>
        <mxCell id="H_qNy9bLWz0ZtJrYIu9e-34" value="media" style="swimlane;fontStyle=0;childLayout=stackLayout;horizontal=1;startSize=26;fillColor=none;horizontalStack=0;resizeParent=1;resizeParentMax=0;resizeLast=0;collapsible=1;marginBottom=0;whiteSpace=wrap;html=1;" vertex="1" parent="1">
          <mxGeometry x="150" y="50" width="140" height="52" as="geometry" />
        </mxCell>
        <mxCell id="H_qNy9bLWz0ZtJrYIu9e-35" value="url: url" style="text;strokeColor=none;fillColor=none;align=left;verticalAlign=top;spacingLeft=4;spacingRight=4;overflow=hidden;rotatable=0;points=[[0,0.5],[1,0.5]];portConstraint=eastwest;whiteSpace=wrap;html=1;" vertex="1" parent="H_qNy9bLWz0ZtJrYIu9e-34">
          <mxGeometry y="26" width="140" height="26" as="geometry" />
        </mxCell>
        <mxCell id="H_qNy9bLWz0ZtJrYIu9e-44" style="edgeStyle=orthogonalEdgeStyle;rounded=0;orthogonalLoop=1;jettySize=auto;html=1;exitX=0.5;exitY=0;exitDx=0;exitDy=0;entryX=0;entryY=0.5;entryDx=0;entryDy=0;endArrow=none;endFill=0;" edge="1" parent="1" source="H_qNy9bLWz0ZtJrYIu9e-39" target="H_qNy9bLWz0ZtJrYIu9e-35">
          <mxGeometry relative="1" as="geometry" />
        </mxCell>
        <mxCell id="H_qNy9bLWz0ZtJrYIu9e-39" value="comment" style="swimlane;fontStyle=0;childLayout=stackLayout;horizontal=1;startSize=26;fillColor=none;horizontalStack=0;resizeParent=1;resizeParentMax=0;resizeLast=0;collapsible=1;marginBottom=0;whiteSpace=wrap;html=1;" vertex="1" parent="1">
          <mxGeometry x="-100" y="197" width="140" height="78" as="geometry" />
        </mxCell>
        <mxCell id="H_qNy9bLWz0ZtJrYIu9e-40" value="description: String" style="text;strokeColor=none;fillColor=none;align=left;verticalAlign=top;spacingLeft=4;spacingRight=4;overflow=hidden;rotatable=0;points=[[0,0.5],[1,0.5]];portConstraint=eastwest;whiteSpace=wrap;html=1;" vertex="1" parent="H_qNy9bLWz0ZtJrYIu9e-39">
          <mxGeometry y="26" width="140" height="26" as="geometry" />
        </mxCell>
        <mxCell id="H_qNy9bLWz0ZtJrYIu9e-41" value="date: Date" style="text;strokeColor=none;fillColor=none;align=left;verticalAlign=top;spacingLeft=4;spacingRight=4;overflow=hidden;rotatable=0;points=[[0,0.5],[1,0.5]];portConstraint=eastwest;whiteSpace=wrap;html=1;" vertex="1" parent="H_qNy9bLWz0ZtJrYIu9e-39">
          <mxGeometry y="52" width="140" height="26" as="geometry" />
        </mxCell>
        <mxCell id="H_qNy9bLWz0ZtJrYIu9e-45" style="edgeStyle=orthogonalEdgeStyle;rounded=0;orthogonalLoop=1;jettySize=auto;html=1;exitX=1;exitY=0.5;exitDx=0;exitDy=0;entryX=0;entryY=0.5;entryDx=0;entryDy=0;endArrow=none;endFill=0;" edge="1" parent="1" source="H_qNy9bLWz0ZtJrYIu9e-40" target="H_qNy9bLWz0ZtJrYIu9e-18">
          <mxGeometry relative="1" as="geometry" />
        </mxCell>
      </root>
    </mxGraphModel>
  </diagram>
</mxfile>
